<svg version="1" xmlns="http://www.w3.org/2000/svg" width="621.333" height="621.333" viewBox="0 0 466.000000 466.000000"><path d="M223.5 77.1c-27.9 2.6-58.1 13.6-80 29-18.2 12.9-35.7 33.2-44 51.1-17.6 38.2-10.9 80.8 16.9 108.3 17.5 17.2 45.7 22.2 89.4 15.9 3.8-.6 4.2-.4 4.2 1.6 0 3.4-4.8 21.4-9.2 34.5-3.2 9.6-4.1 13.9-4.5 21.8-.6 9.4-.5 9.9 2.6 16.2 4.2 8.5 10.9 14.3 23.6 20.5 12.6 6.2 23.3 9.1 36.1 9.7 24.6 1.3 34.8-8.3 41.9-39.5 3.6-15.9 5.1-35 3.7-47.5-1.3-11.1-5-26.3-8.3-34-1.1-2.7-1.9-5-1.7-5.2.2-.1 3.5-1.5 7.3-3 38.4-15.1 58.7-32.5 64-54.6 3.6-15.5.2-40.9-7.9-58.4-17.2-37.2-56.1-61.7-105.1-66.5-11.4-1.1-16.4-1.1-29 .1zM268 90.5c34.2 7.7 60.9 25 73.2 47.5 8.7 15.9 13.8 32.2 13.8 44.3v6.8l-7.2-5.9c-27.1-22.2-56.3-32.6-92.3-32.6-33.8 0-63.3 8.5-90.5 26.2-23.4 15.1-38.6 32.5-49.5 56.7l-4.3 9.5-3.5-8.2c-5.6-13.2-6.1-15.9-6.1-33.3-.1-13.7.2-17.1 2.2-23.8 8.2-28.6 28-52.1 59-70.4C180.4 96.9 198 90.8 215.3 89c13-1.3 44-.5 52.7 1.5zm14.8 73.4c25.4 4.9 46.6 15.7 62.7 31.7 4.1 4.2 7.5 8 7.5 8.5 0 2.3-4.3 9.1-9.1 14.3-8.8 9.7-25.7 19.6-47.8 28.2-5.4 2.1-7.6 2.5-7.9 1.6-1.7-5.1-19.3-26.4-20.7-25-.4.4 1 3.8 3.2 7.5 9.1 15.4 13.3 25.9 19.8 49.1 4.7 17.4 5.7 26.7 4.4 41.2-1.9 20.9-6.2 37.9-11.7 46.3-7 10.5-22.5 12.5-44.2 5.5-9-2.9-20.7-8.9-25.7-13.2-9.8-8.5-10.5-16.1-3.4-39.2 6.6-21.6 9.2-33.1 10-44.4 1.3-19.5-1.7-35.8-9.5-51.2-1.9-3.7-3.4-7.2-3.4-7.8 0-3.6 19.8-8.9 36.3-9.7 6.5-.3 11.4-1 11-1.4-.4-.4-4.2-1.7-8.3-2.8-14.4-4-32-2.1-46.1 5-3.5 1.7-6.5 3.3-6.7 3.4-.2.2 2 4.4 4.8 9.4 9.2 16.4 13.4 30 12.8 42.1l-.3 6.5-9 1.3c-14.3 2.1-44.6 2-52.5-.1-9.9-2.7-17.9-6.8-24-12.4l-5.4-5 1.8-5.9c8.6-27.5 32-53.2 62.5-68.8 30.4-15.6 66.6-20.9 98.9-14.7z"/></svg>